<?xml version="1.0" encoding="utf-8"?>
<!-- Generator: Adobe Illustrator 27.5.0, SVG Export Plug-In . SVG Version: 6.00 Build 0)  -->
<svg version="1.1" xmlns="http://www.w3.org/2000/svg" xmlns:xlink="http://www.w3.org/1999/xlink" x="0px" y="0px"
	 viewBox="0 0 596 178" style="enable-background:new 0 0 596 178;" xml:space="preserve">
<style type="text/css">
	.st0{fill:#FFFFFF;}
</style>
<g id="Text_Submarke">
	<g>
		<path class="st0" d="M113.6,141H111v-18h2.6V141z"/>
		<path class="st0" d="M119.6,129.1v1.5c1.1-1.2,2.5-1.7,3.6-1.7c0.7,0,2.4,0.3,3.4,1.9c0.4,0.6,0.7,1.3,0.7,3.4v6.8h-2.4v-6.8
			c0-1.3,0-1.9-0.6-2.6c-0.4-0.5-1-0.7-1.8-0.7c-1.1,0-2.1,0.6-2.8,1.7v8.5h-2.4v-11.9H119.6z"/>
		<path class="st0" d="M137.3,132.2c-1.3-0.8-2.3-1.3-3.4-1.3s-1.5,0.6-1.5,1.1c0,0.8,0.8,1.2,2.6,2.2c1.7,0.9,3,2.1,3,3.7
			c0,1.1-0.8,3.4-4.1,3.4c-1.7,0-2.8-0.5-4-1.1v-2.5c1.7,1.2,3.1,1.6,3.8,1.6c0.7,0,1.8-0.4,1.8-1.2c0-0.8-0.7-1.2-1.8-1.8
			c-2-1.1-3.7-2.1-3.7-4.1c0-1.7,1.5-3.1,3.8-3.1c1.8,0,3,0.7,3.6,1V132.2z"/>
		<path class="st0" d="M143.4,129.1h3.7v2.1h-3.7v5.2c0,1.5,0.1,1.7,0.4,2.2c0.4,0.5,1,0.5,1.3,0.5c0.5,0,1.4-0.1,2.7-0.8v2.2
			c-1.1,0.6-2.3,0.8-3,0.8c-0.8,0-2.3-0.3-3.1-1.5c-0.6-0.9-0.6-2.1-0.6-3.2v-5.3H139V131l4.4-4.3V129.1z"/>
		<path class="st0" d="M152.4,125.5c0,0.7-0.6,1.4-1.4,1.4c-0.9,0-1.4-0.8-1.4-1.4c0-0.7,0.6-1.4,1.4-1.4S152.4,124.8,152.4,125.5z
			 M152.2,141h-2.3v-11.9h2.3V141z"/>
		<path class="st0" d="M158.3,129.1h3.7v2.1h-3.7v5.2c0,1.5,0.1,1.7,0.4,2.2c0.4,0.5,1,0.5,1.3,0.5c0.5,0,1.4-0.1,2.7-0.8v2.2
			c-1.1,0.6-2.3,0.8-3,0.8c-0.8,0-2.3-0.3-3.1-1.5c-0.6-0.9-0.6-2.1-0.6-3.2v-5.3h-2.1V131l4.4-4.3V129.1z"/>
		<path class="st0" d="M172.3,141v-1.5c-1.1,1.2-2.5,1.7-3.6,1.7c-0.7,0-2.4-0.3-3.4-1.9c-0.4-0.6-0.7-1.3-0.7-3.4v-6.8h2.4v6.8
			c0,1.3,0,3.4,2.4,3.4c1.1,0,2.1-0.7,2.8-1.7v-8.5h2.4V141H172.3z"/>
		<path class="st0" d="M180.7,129.1h3.7v2.1h-3.7v5.2c0,1.5,0.1,1.7,0.4,2.2c0.4,0.5,1,0.5,1.3,0.5c0.5,0,1.4-0.1,2.7-0.8v2.2
			c-1.1,0.6-2.3,0.8-3,0.8c-0.8,0-2.3-0.3-3.1-1.5c-0.6-0.9-0.6-2.1-0.6-3.2v-5.3h-2.1V131l4.4-4.3V129.1z"/>
		<path class="st0" d="M196.7,139.8c-0.8,0.5-2.2,1.4-4.6,1.4c-1.2,0-2.7-0.2-4.1-1.7c-1.6-1.6-1.8-3.4-1.8-4.6
			c0-3.7,2.3-6.1,5.5-6.1c2.8,0,4.6,2,5,4.6c0.1,0.8,0.1,1.3,0.1,1.8h-8.3c0.1,1.8,1.2,3.7,3.8,3.7c1.5,0,3-0.5,4.3-1.5V139.8z
			 M194.6,133.9c0-0.5-0.2-2.9-2.9-2.9c-0.7,0-1.6,0.3-2.3,1c-0.6,0.7-0.7,1.4-0.8,1.9H194.6z"/>
		<path class="st0" d="M213,125.3c-0.3-0.1-0.5-0.2-1.1-0.2c-2.5,0-2.5,2-2.5,3.4v0.7h2.1v2.1h-2.1v9.7H207v-9.7h-1.7v-2.1h1.7v-0.7
			c0-1.9,0.4-2.8,0.6-3.3c0.7-1.4,2.1-2.3,3.6-2.3c0.7,0,1.2,0.1,1.7,0.2V125.3z"/>
		<path class="st0" d="M225,135.1c0,4.2-3.4,6.1-6.4,6.1c-3.8,0-6.3-2.8-6.3-6.2c0-3.3,2.4-6.2,6.4-6.2
			C222.2,128.9,225,131.4,225,135.1z M214.7,135.1c0,3,2.2,4,4,4c2.3,0,3.9-1.7,3.9-4.1c0-3-2.3-4-4-4
			C216.4,131,214.7,132.5,214.7,135.1z"/>
		<path class="st0" d="M229.8,129.1v2.7c0.8-1.2,1.9-3,3.5-3c0.3,0,1.4,0,2.8,1.3l-1.2,2.1c-0.3-0.3-1.3-1.2-2.3-1.2
			c-0.9,0-2.8,1-2.8,3.6v6.2h-2.3v-11.9H229.8z"/>
		<path class="st0" d="M248,138.7h8.1v2.3h-10.7v-18h2.6V138.7z"/>
		<path class="st0" d="M267.3,140.3c-1.1,0.7-1.5,0.9-2.3,0.9c-1,0-1.6-0.4-1.8-1.2c-1,0.8-2.1,1.2-3.2,1.2c-1.7,0-2.9-1.4-2.9-2.9
			c0-2.3,2.1-3.1,4-3.7l2.1-0.7v-0.6c0-1.5-0.7-2.1-2.1-2.1c-1.3,0-2.6,0.6-3.7,2v-2.6c0.9-1.1,2.2-1.6,3.9-1.6
			c2.4,0,4.3,1.2,4.3,3.9v6.1c0,0.4,0.2,0.6,0.4,0.6c0.2,0,0.7-0.2,1.2-0.6V140.3z M263.3,135.1c-2,0.7-3.7,1.4-3.7,2.8
			c0,1,0.7,1.7,1.7,1.7c0.7,0,1.4-0.4,2.1-1V135.1z"/>
		<path class="st0" d="M280.5,141.2h-0.7l-3.5-8.3l-3.5,8.3H272l-5.3-12.1h2.5l3.1,7.2l3-7.2h1.7l3,7.2l3.1-7.2h2.5L280.5,141.2z"/>
		<path class="st0" d="M304,140.3c-1.1,0.7-1.5,0.9-2.3,0.9c-1,0-1.6-0.4-1.8-1.2c-1,0.8-2.1,1.2-3.2,1.2c-1.7,0-2.9-1.4-2.9-2.9
			c0-2.3,2.1-3.1,4-3.7l2.1-0.7v-0.6c0-1.5-0.7-2.1-2.1-2.1c-1.3,0-2.6,0.6-3.7,2v-2.6c0.9-1.1,2.2-1.6,3.9-1.6
			c2.4,0,4.3,1.2,4.3,3.9v6.1c0,0.4,0.2,0.6,0.4,0.6c0.2,0,0.7-0.2,1.2-0.6V140.3z M300,135.1c-2,0.7-3.7,1.4-3.7,2.8
			c0,1,0.7,1.7,1.7,1.7c0.7,0,1.4-0.4,2.1-1V135.1z"/>
		<path class="st0" d="M308.3,129.1v1.5c1.1-1.2,2.5-1.7,3.6-1.7c0.7,0,2.4,0.3,3.4,1.9c0.4,0.6,0.7,1.3,0.7,3.4v6.8h-2.4v-6.8
			c0-1.3,0-1.9-0.6-2.6c-0.4-0.5-1-0.7-1.8-0.7c-1.1,0-2.1,0.6-2.8,1.7v8.5h-2.4v-11.9H308.3z"/>
		<path class="st0" d="M329.5,141h-5c-4.6,0-5.8-3.8-5.8-6.1c0-3.9,2.9-6,5.8-6c1.2,0,2.1,0.3,2.6,0.5V123h2.4V141z M327.1,131.5
			c-0.4-0.2-1.1-0.6-2.2-0.6c-2,0-3.8,1.3-3.8,4.2c0,2,0.8,3,1.7,3.5c0.6,0.3,1.2,0.4,2.5,0.4h1.8V131.5z"/>
		<path class="st0" d="M350.5,125.3h-7.6v5.5h7.4v2.3h-7.4v5.6h7.9v2.3h-10.5v-18h10.2V125.3z"/>
		<path class="st0" d="M362.4,132.2c-0.7-0.4-1.8-1.1-3.3-1.1c-2.5,0-3.6,2.1-3.6,4c0,2,1.2,4,4.1,4c1.2,0,2.2-0.4,3.1-0.8v2.3
			c-0.5,0.2-1.8,0.7-3.5,0.7c-4.1,0-6.1-2.9-6.1-6.1c0-2.9,1.6-6.2,5.9-6.2c1.5,0,2.5,0.4,3.4,0.8V132.2z"/>
		<path class="st0" d="M377.2,135.1c0,4.2-3.4,6.1-6.4,6.1c-3.8,0-6.3-2.8-6.3-6.2c0-3.3,2.4-6.2,6.4-6.2
			C374.5,128.9,377.2,131.4,377.2,135.1z M367,135.1c0,3,2.2,4,4,4c2.3,0,3.9-1.7,3.9-4.1c0-3-2.3-4-4-4
			C368.7,131,367,132.5,367,135.1z"/>
		<path class="st0" d="M382.2,129.1v1.5c1.1-1.2,2.5-1.7,3.6-1.7c0.7,0,2.4,0.3,3.4,1.9c0.4,0.6,0.7,1.3,0.7,3.4v6.8h-2.4v-6.8
			c0-1.3,0-1.9-0.6-2.6c-0.4-0.5-1-0.7-1.8-0.7c-1.1,0-2.1,0.6-2.8,1.7v8.5h-2.4v-11.9H382.2z"/>
		<path class="st0" d="M405,135.1c0,4.2-3.4,6.1-6.4,6.1c-3.8,0-6.3-2.8-6.3-6.2c0-3.3,2.4-6.2,6.4-6.2
			C402.3,128.9,405,131.4,405,135.1z M394.7,135.1c0,3,2.2,4,4,4c2.3,0,3.9-1.7,3.9-4.1c0-3-2.3-4-4-4
			C396.5,131,394.7,132.5,394.7,135.1z"/>
		<path class="st0" d="M409.8,129.1v1.6c1.4-1.4,2.3-1.8,3.5-1.8c1.4,0,2.7,0.8,3.5,2.1c1.5-1.5,2.5-2.1,3.9-2.1c2.6,0,4,1.7,4,4.7
			v7.4h-2.3v-7.2c0-1.9-0.9-2.9-2.5-2.9c-0.9,0-2,0.6-2.7,1.5v8.6H415v-7.1c0-1.6-0.4-3-2.3-3c-1.1,0-2,0.6-2.8,1.5v8.6h-2.3v-11.9
			H409.8z"/>
		<path class="st0" d="M430.6,125.5c0,0.7-0.6,1.4-1.4,1.4c-0.9,0-1.4-0.8-1.4-1.4c0-0.7,0.6-1.4,1.4-1.4S430.6,124.8,430.6,125.5z
			 M430.4,141H428v-11.9h2.3V141z"/>
		<path class="st0" d="M442.4,132.2c-0.7-0.4-1.8-1.1-3.3-1.1c-2.5,0-3.6,2.1-3.6,4c0,2,1.2,4,4.1,4c1.2,0,2.2-0.4,3.1-0.8v2.3
			c-0.5,0.2-1.8,0.7-3.5,0.7c-4.1,0-6.1-2.9-6.1-6.1c0-2.9,1.6-6.2,5.9-6.2c1.5,0,2.5,0.4,3.4,0.8V132.2z"/>
		<path class="st0" d="M452.2,132.2c-1.3-0.8-2.3-1.3-3.4-1.3s-1.5,0.6-1.5,1.1c0,0.8,0.8,1.2,2.6,2.2c1.7,0.9,3,2.1,3,3.7
			c0,1.1-0.8,3.4-4.1,3.4c-1.7,0-2.8-0.5-4-1.1v-2.5c1.7,1.2,3.1,1.6,3.8,1.6c0.7,0,1.8-0.4,1.8-1.2c0-0.8-0.7-1.2-1.8-1.8
			c-2-1.1-3.7-2.1-3.7-4.1c0-1.7,1.5-3.1,3.8-3.1c1.8,0,3,0.7,3.6,1V132.2z"/>
	</g>
</g>
<g id="Logo">
	<path class="st0" d="M198,72.9c-5.5,0-9.2,4-9.2,10c0,5.5,3.4,10.5,9.6,10.5c3.3,0,5.5-0.7,7.9-2.3v-3.8c-2.3,1.5-4.5,2.4-6.9,2.4
		c-3.8,0-6-2-6.6-5.9h13.9C206.5,76.4,203.2,72.9,198,72.9z M192.7,81.1c0.5-3.1,2.3-4.9,5.3-4.9c2.8,0,4.5,1.9,4.6,4.9H192.7z
		 M220.9,72.9c1.5,0,2.8,0.6,4.3,1.9l-2.1,3.4c-1.1-0.9-2.4-1.6-3.3-1.6c-2.7,0-4.8,2.7-4.8,6.1V93h-3.9V73.2h3.9v4.5h0.1
		C217.1,74.3,219,72.9,220.9,72.9z M239.6,87.6c0,3.5-2.8,5.8-6.5,5.8c-2.4,0-4.3-0.5-6.9-1.8v-4.2c2.6,1.8,4.9,2.6,6.5,2.6
		c1.6-0.1,2.9-0.8,2.9-2.2c0-2.7-9.2-4.2-9.2-9.5c0-3.3,2.6-5.4,6.5-5.4c1.8,0,3.7,0.5,5.8,1.6v3.9c-2.2-1.5-4.3-2.1-5.7-2.1
		c-1.6,0-2.6,0.7-2.6,1.8c0,0.9,1.3,1.9,4.8,4C238.4,84.2,239.6,85.6,239.6,87.6z M244,73.2h3.9V93H244V73.2z M248.3,67.3
		c0,1.3-1.1,2.3-2.3,2.3c-1.3,0-2.3-1.1-2.3-2.3c0-1.3,1.1-2.3,2.3-2.3C247.3,64.9,248.3,66,248.3,67.3z M162.2,73.2h3.9V93h-3.9
		V73.2z M131.5,63h4.3v18.2c0,7.3-4.4,12.2-13.3,12.2c-6.3,0-12.5-3.6-12.5-11.7V63h4.3v17.7c0,3.4,0.4,4.8,1.8,6.2
		c1.7,1.7,3.9,2.6,6.5,2.6c3.3,0,5.7-1.1,7-2.4c1.5-1.5,1.9-3.7,1.9-6.6V63z M183.7,73.2h4.2l-8.7,20.1h-1.3l-8.9-20.1h4.3l5.3,12.1
		L183.7,73.2z M157.1,80.8V93h-3.9V80.8c0-2.9-1.5-4.8-3.9-4.8c-1.7,0-3.1,0.8-4.9,2.9V93h-3.9V73.2h3.9v2.6h0.1
		c1.5-1.9,3.7-3,5.9-3C154.1,72.9,157.1,75.4,157.1,80.8z M274.2,88.8l-7.7-15.5h4.4l5.3,11.1l5.1-11.1h4.4L271.9,103h-4.4
		L274.2,88.8z M166.5,67.3c0,1.3-1.1,2.3-2.3,2.3c-1.3,0-2.3-1.1-2.3-2.3c0-1.3,1.1-2.3,2.3-2.3C165.5,64.9,166.5,66,166.5,67.3z
		 M261.1,93.4c-4.3,0-6.4-2.6-6.4-6.2V76.8h-3.4v-0.4l7.3-7.2v4.1h6.2v3.5h-6.2v10.1c0,2.3,1.7,3,2.8,3c1.4,0,2.9-0.5,4.4-1.5v3.7
		C264.5,92.8,262.4,93.4,261.1,93.4z M440.7,63h3.9v30h-3.9V63z M434.7,89.5V79.4c0-4.5-3.2-6.5-7.2-6.5c-2.9,0-5,0.9-6.6,2.7v4.3
		c1.9-2.2,4.1-3.3,6.2-3.3c2.4,0,3.6,1,3.6,3.5v1.1l-3.5,1.2c-3.2,1.1-6.7,2.3-6.7,6.2c0,2.6,1.9,4.8,4.8,4.8c1.8,0,3.6-0.7,5.3-2
		c0.4,1.4,1.3,2,3,2c1.2,0,2-0.4,3.8-1.5v-2.4c-0.9,0.7-1.7,1.1-2.1,1.1C435,90.5,434.7,90.3,434.7,89.5z M430.8,89
		c-1.1,1-2.2,1.6-3.4,1.6c-1.6,0-2.8-1.1-2.8-2.8c0-2.3,2.9-3.5,6.2-4.6V89z M496,80.8V93h-3.9V80.8c0-2.9-1.5-4.8-3.9-4.8
		c-1.7,0-3.1,0.8-4.9,2.9V93h-3.9V73.2h3.9v2.6h0.1c1.5-1.9,3.7-3,5.9-3C493,72.9,496,75.4,496,80.8z M466.8,72.9
		c-5.5,0-9.2,4-9.2,10c0,5.5,3.4,10.5,9.6,10.5c3.3,0,5.5-0.7,7.9-2.3v-3.8c-2.3,1.5-4.5,2.4-6.9,2.4c-3.8,0-6-2-6.6-5.9h13.9
		C475.4,76.4,472,72.9,466.8,72.9z M461.6,81.1c0.5-3.1,2.3-4.9,5.3-4.9c2.8,0,4.5,1.9,4.6,4.9H461.6z M406.2,78.2h10.1v12.7
		c-4,1.8-7.3,2.5-11.4,2.5c-9.2,0-16-6.4-16-15.2c0-8.8,6.9-15.6,16.1-15.6c3.5,0,6,0.6,10.7,2.6v4.4c-3.5-1.9-7.2-2.9-10.8-2.9
		c-6.5,0-11.6,5-11.6,11.5c0,6.7,5,11.4,12.1,11.4c2.3,0,4.4-0.5,6.5-1.2v-6.2h-5.8V78.2z M449.9,63h3.9v30h-3.9V63z M331.9,63v3.8
		c-0.7-0.3-1.1-0.4-1.8-0.4c-3.2,0-4.2,1.8-4.2,4.9v1.9h3.6v3.5h-3.6V93H322V76.8h-2.8v-3.5h2.8v-1.5c0-3.9,0.9-5.7,2.5-7.3
		C326.2,62.8,328.4,62,331.9,63z M384.5,90.8c0,1.4-1.2,2.6-2.6,2.6c-1.5,0-2.6-1.2-2.6-2.6c0-1.5,1.2-2.6,2.6-2.6
		C383.3,88.1,384.5,89.3,384.5,90.8z M306.6,72.9c-5.9,0-10.4,4.4-10.4,10.1c0,6.1,4.4,10.5,10.4,10.5c6.3,0,10.7-4.2,10.7-10.5
		C317.3,77.1,312.8,72.9,306.6,72.9z M306.5,89.9c-3.8,0-6.4-2.8-6.4-6.9c0-3.8,2.7-6.6,6.4-6.6c3.9,0,6.7,2.8,6.7,6.6
		C313.3,87.2,310.7,89.9,306.5,89.9z M372.4,89.9c1.4,0,2.9-0.5,4.4-1.5v3.7c-1.4,0.7-3.5,1.3-4.7,1.3c-4.3,0-6.4-2.6-6.4-6.2V76.8
		h-3.4v-0.4l7.3-7.2v4.1h6.2v3.5h-6.2v10.1C369.6,89.2,371.2,89.9,372.4,89.9z M360.8,85.3c0,4.7-3.6,8.1-8.4,8.1
		c-3.3,0-5.9-0.9-8.4-2.8v-5.5c2.2,2.8,5,4.4,7.9,4.4c3.3,0,4.9-2.1,4.9-3.8c0-6.2-13-6.9-13-15.1c0-4.9,3.6-8,9.1-8
		c2.3,0,4.6,0.7,6.7,2.1v4.9c-2.6-2.4-5-3.1-7-3.1c-2.8,0-4.7,1.4-4.7,3.6C347.8,75.8,360.8,75.7,360.8,85.3z M90,70L54.6,57.1
		c-1.2-0.4-2.1-1.5-2.5-2.7l-0.6-2.2c-0.6-2.3,0.8-4.6,3.2-5L90,41V70z M41,56.6L38.6,54c-1.3-1.4-3.3-1.7-5-0.8L8.1,67.9l4.5,25.3
		l10,0.9l18.9-32.8C42.3,59.8,42.1,57.9,41,56.6z M35.9,27.5c-0.5-1.5-1.8-2.5-3.4-2.7L0,22l7,40l32.5-18.8c0.8-0.5,1.2-1.5,0.9-2.4
		c-0.2-0.6-0.6-1-1.2-1.2c-2.5-0.9-4.3-3.3-4.3-6.1c0-1,0.2-2,0.7-2.8C36.1,29.7,36.3,28.5,35.9,27.5z M90,0L41.7,22.5
		c-1,0.5-1.5,1.7-1.1,2.7l0.2,0.5c0.3,0.7,1,1.2,1.7,1.3c2,0.3,3.9,1.6,4.8,3.7c1.1,2.4,0.7,5-0.9,6.9c-0.4,0.5-0.5,1.1-0.3,1.6
		c0.3,0.8,1.2,1.2,2,0.9L90,25V0z M56.1,65.3c-3.9-2.7-9.2-1.5-11.5,2.6L29.2,94.7L90,100V89L56.1,65.3z"/>
</g>
</svg>
